<svg width="45" height="45" viewBox="0 0 45 45" fill="none" xmlns="http://www.w3.org/2000/svg">
<path d="M39.1272 25.2854L37.0585 23.6503C33.5147 28.1353 28.2085 30.7075 22.5001 30.7075C20.7368 30.7075 19.0057 30.463 17.3357 29.9793L21.4249 22.1349C18.622 21.8352 16.1602 20.376 14.5316 18.2471L10.3846 26.2024C9.49256 25.4318 8.67438 24.5774 7.9419 23.6502L5.87305 25.2853C6.83765 26.506 7.93215 27.6163 9.13643 28.5968L6.90875 32.8701C6.09488 34.4313 5.93756 36.2165 6.46578 37.8962C6.85962 39.1486 7.59983 40.2309 8.59783 41.0379L7.16794 43.781L9.50601 45L16.0955 32.3586C18.1595 33.0132 20.3085 33.3445 22.5002 33.3445C29.02 33.3445 35.0803 30.4071 39.1272 25.2854Z" fill="#25C6DA"/>
<path d="M22.5001 19.556C26.577 19.556 29.8937 16.2389 29.8937 12.1617C29.8937 8.53427 27.2685 5.50863 23.8184 4.88505V0H21.1817V4.88505C17.7317 5.50863 15.1064 8.53427 15.1064 12.1617C15.1064 16.2389 18.4233 19.556 22.5001 19.556ZM21.1817 10.8432H23.8184V13.4801H21.1817V10.8432Z" fill="#25C6DA"/>
<path d="M23.5752 22.1349L26.4167 27.5865C29.0077 26.9334 31.3904 25.6352 33.3583 23.7901L30.4685 18.2462C28.8407 20.3752 26.3789 21.8352 23.5752 22.1349Z" fill="#25C6DA"/>
<path d="M37.1089 30.9847C35.0074 32.6223 32.6555 33.8871 30.1436 34.7344L35.4942 45L37.8322 43.7809L36.4023 41.0379C37.4004 40.2309 38.1406 39.1486 38.5345 37.8961C39.0627 36.2164 38.9054 34.4311 38.0915 32.87L37.1089 30.9847Z" fill="#25C6DA"/>
</svg>
